# xmcd
#
# Track frame offsets: 
#        150
#        9935
#        18687
#        29575
#        40947
#        54885
#        66915
#        78725
#        89655
#        102270
#        113330
#        123140
#        135455
#        149312
#        159952
#        173175
#        186510
#        198640
#
# Disc length: 2937 seconds
#
# Revision: 2
# Processed by: cddbd v1.5.1PL0 Copyright (c) Steve Scherf et al.
# Submitted via: ExactAudioCopy v0.95a5
#
DISCID=f20b7712
DTITLE=Charlie Rich - Charlie Rich: Ultimate Collection
DYEAR=2000
DGENRE=Country
TTITLE0=Lonely Weekends
TTITLE1=Rebound
TTITLE2=Who Will The Next Fool Be?
TTITLE3=Break Up
TTITLE4=Sittin' And Thinkin'
TTITLE5=There's Another Place I Can't Go
TTITLE6=Big Boss Man
TTITLE7=There Won't Be Anymore
TTITLE8=River, Stay Away From My Door
TTITLE9=She Called Me Baby
TTITLE10=Mohair Sam
TTITLE11=I Washed My Hands In Muddy Water
TTITLE12=A Field Of Yellow Daisies
TTITLE13=Everything I Do Is Wrong
TTITLE14=You Can Have Her
TTITLE15=Behind Closed Doors
TTITLE16=The Most Beautiful Girl
TTITLE17=Feel Like Going Home
EXTD=
EXTT0=
EXTT1=
EXTT2=
EXTT3=
EXTT4=
EXTT5=
EXTT6=
EXTT7=
EXTT8=
EXTT9=
EXTT10=
EXTT11=
EXTT12=
EXTT13=
EXTT14=
EXTT15=
EXTT16=
EXTT17=
PLAYORDER=
